# xmcd CD database file
#
# Track frame offsets:
#	150
#	14520
#	30298
#	45897
#	61208
#	75050
#	93749
#	108313
#	127899
#	145294
#	165271
#
# Disc length: 2421 seconds
#
# Revision: 4
# Processed by: cddbd v1.5.2PL0 Copyright (c) Steve Scherf et al.
# Submitted via: NeoAudio 9.9.9
#
DISCID=7309730b
DTITLE=שרית חדד - ילדה של אהבה
DYEAR=2002
DGENRE=ים תיכונית
TTITLE0=שרופה עליו
TTITLE1=אתה תותח
TTITLE2=כיאלו כזה
TTITLE3=נדלק ביחד נר
TTITLE4=אני לא מדונה
TTITLE5=לא טוב לשנינו
TTITLE6=מיסטר די.ג'י.
TTITLE7=לראות את הכאב
TTITLE8=ילדה של האהבה
TTITLE9=העצב בתוכי
TTITLE10=קרנבל
EXTD=YEAR: 2002
EXTT0=
EXTT1=
EXTT2=
EXTT3=
EXTT4=
EXTT5=
EXTT6=
EXTT7=
EXTT8=
EXTT9=
EXTT10=
PLAYORDER=
